<svg width="30" height="29" viewBox="0 0 30 29" fill="none" xmlns="http://www.w3.org/2000/svg">
<path fill-rule="evenodd" clip-rule="evenodd" d="M23.9964 7.05532C23.9964 5.90704 23.0656 4.97617 21.9173 4.97617C20.769 4.97617 19.8381 5.90704 19.8381 7.05532V8.96119C19.8381 9.24826 19.6054 9.48098 19.3184 9.48098H24.5162C24.2291 9.48098 23.9964 9.24826 23.9964 8.96119V7.05532Z" stroke="#9B9B9B" stroke-linecap="round" stroke-linejoin="round"/>
<path d="M22.408 10.3095C22.3347 10.5174 22.1383 10.6564 21.9179 10.6564C21.6975 10.6564 21.5011 10.5174 21.4277 10.3095" stroke="#9B9B9B" stroke-linecap="round" stroke-linejoin="round"/>
<path d="M21.7441 4.28347V4.97652" stroke="#9B9B9B" stroke-linecap="round" stroke-linejoin="round"/>
<path fill-rule="evenodd" clip-rule="evenodd" d="M21.8989 0.604165C19.9713 0.610616 18.1269 1.3903 16.7792 2.76844C15.4315 4.14658 14.6932 6.00789 14.7298 7.93512C14.6755 9.28433 15.0025 10.6215 15.6735 11.7933L13.5215 16.3125L18.0419 14.1592C20.6842 15.7973 24.0727 15.5896 26.4951 13.641C28.9176 11.6924 29.8467 8.42717 28.813 5.49514C27.7792 2.56311 25.0078 0.602599 21.8989 0.604165V0.604165Z" stroke="#9B9B9B" stroke-linecap="round" stroke-linejoin="round"/>
<path d="M20.7715 17.522V28.397" stroke="#9B9B9B" stroke-linecap="round" stroke-linejoin="round"/>
<path d="M1.4375 28.3958V6.64583C1.4375 5.31114 2.51948 4.22916 3.85417 4.22916H12.9167" stroke="#9B9B9B" stroke-linecap="round" stroke-linejoin="round"/>
<path d="M12.3125 9.06371H1.4375" stroke="#9B9B9B" stroke-linecap="round" stroke-linejoin="round"/>
<path fill-rule="evenodd" clip-rule="evenodd" d="M10.5 22.9595C12.0015 22.9595 13.2188 21.7423 13.2188 20.2408C13.2188 18.7393 12.0015 17.522 10.5 17.522C8.99848 17.522 7.78125 18.7393 7.78125 20.2408C7.78125 21.7423 8.99848 22.9595 10.5 22.9595Z" stroke="#9B9B9B" stroke-linecap="round" stroke-linejoin="round"/>
<path d="M15.9375 28.3958C15.3037 25.9103 13.0651 24.1709 10.5 24.1709C7.93489 24.1709 5.69632 25.9103 5.0625 28.3958" stroke="#9B9B9B" stroke-linecap="round" stroke-linejoin="round"/>
<path d="M9.29102 6.64704H12.3118" stroke="#9B9B9B" stroke-linecap="round" stroke-linejoin="round"/>
</svg>
