<svg width="30" height="26" viewBox="0 0 30 26" fill="none" xmlns="http://www.w3.org/2000/svg">
<path fill-rule="evenodd" clip-rule="evenodd" d="M28.7292 22.9792C28.7292 24.3139 27.6472 25.3958 26.3125 25.3958H3.35417C2.01948 25.3958 0.9375 24.3139 0.9375 22.9792V3.64583C0.9375 2.31114 2.01948 1.22916 3.35417 1.22916H26.3125C27.6472 1.22916 28.7292 2.31114 28.7292 3.64583V22.9792Z" stroke="#9B9B9B" stroke-linecap="round" stroke-linejoin="round"/>
<path d="M0.9375 7.27083H28.7292" stroke="#9B9B9B" stroke-linecap="round" stroke-linejoin="round"/>
<path d="M5.16602 20.6036H7.58268" stroke="#9B9B9B" stroke-linecap="round" stroke-linejoin="round"/>
<path d="M14.834 10.9357V13.3512" stroke="#9B9B9B" stroke-linecap="round" stroke-linejoin="round"/>
<path d="M7.99609 13.7656L9.70347 15.473" stroke="#9B9B9B" stroke-linecap="round" stroke-linejoin="round"/>
<path d="M24.5033 20.6012H22.0879" stroke="#9B9B9B" stroke-linecap="round" stroke-linejoin="round"/>
<path d="M5.76758 1.22916V7.27083" stroke="#9B9B9B" stroke-linecap="round" stroke-linejoin="round"/>
<path d="M10.5996 1.22916V7.27083" stroke="#9B9B9B" stroke-linecap="round" stroke-linejoin="round"/>
<path fill-rule="evenodd" clip-rule="evenodd" d="M20.6328 15.0428C20.9845 14.5595 20.854 14.4169 20.3404 14.7202L14.9537 17.9042C14.3807 18.284 13.9545 18.848 13.7453 19.5028L13.6245 20.0236C13.5441 20.2821 13.5909 20.5634 13.7508 20.7818C13.9107 21.0003 14.1646 21.1301 14.4353 21.1316L15.0298 21.1642C15.6961 21.1627 16.3272 20.8647 16.7517 20.351L20.6328 15.0428Z" stroke="#9B9B9B" stroke-linecap="round" stroke-linejoin="round"/>
</svg>
