<svg width="30" height="25" viewBox="0 0 30 25" fill="none" xmlns="http://www.w3.org/2000/svg">
<rect x="1.36133" y="1.43871" width="27.7917" height="22.9583" rx="2" stroke="#9B9B9B" stroke-linecap="round" stroke-linejoin="round"/>
<path d="M1.36133 7.48037H29.153" stroke="#9B9B9B" stroke-linecap="round" stroke-linejoin="round"/>
<path d="M5.01498 4.15746C5.18181 4.15746 5.31706 4.29271 5.31706 4.45954C5.31706 4.62638 5.18181 4.76162 5.01498 4.76162C4.84814 4.76162 4.71289 4.62638 4.71289 4.45954C4.71257 4.37933 4.74429 4.3023 4.80101 4.24558C4.85774 4.18886 4.93476 4.15714 5.01498 4.15746" stroke="#9B9B9B" stroke-linecap="round" stroke-linejoin="round"/>
<path d="M8.63998 4.15746C8.80681 4.15746 8.94206 4.29271 8.94206 4.45954C8.94206 4.62638 8.80681 4.76162 8.63998 4.76162C8.47314 4.76162 8.33789 4.62638 8.33789 4.45954C8.33757 4.37933 8.36929 4.3023 8.42601 4.24558C8.48274 4.18886 8.55976 4.15714 8.63998 4.15746" stroke="#9B9B9B" stroke-linecap="round" stroke-linejoin="round"/>
<path fill-rule="evenodd" clip-rule="evenodd" d="M15.2572 16.5429C15.9245 16.5429 16.4655 16.0019 16.4655 15.3345C16.4655 14.6672 15.9245 14.1262 15.2572 14.1262C14.5898 14.1262 14.0488 14.6672 14.0488 15.3345C14.0488 16.0019 14.5898 16.5429 15.2572 16.5429Z" stroke="#9B9B9B" stroke-linecap="round" stroke-linejoin="round"/>
<path fill-rule="evenodd" clip-rule="evenodd" d="M16.2834 10.6607L16.6399 11.8304C16.762 12.2336 17.1754 12.4733 17.586 12.379L18.7714 12.1035C19.2327 11.9999 19.7077 12.2087 19.9433 12.6186C20.1789 13.0286 20.1202 13.5441 19.7984 13.8906L18.9683 14.786C18.6821 15.0957 18.6821 15.5734 18.9683 15.8831L19.7984 16.7785C20.1202 17.125 20.1789 17.6405 19.9433 18.0505C19.7077 18.4604 19.2327 18.6692 18.7714 18.5656L17.586 18.2901C17.1755 18.1964 16.7625 18.4359 16.6399 18.8387L16.2834 20.0084C16.1494 20.464 15.7312 20.7769 15.2563 20.7769C14.7814 20.7769 14.3632 20.464 14.2292 20.0084L13.8728 18.8387C13.7502 18.4359 13.3371 18.1964 12.9266 18.2901L11.7413 18.5656C11.2799 18.6692 10.8049 18.4604 10.5693 18.0505C10.3337 17.6405 10.3924 17.125 10.7142 16.7785L11.5443 15.8831C11.8305 15.5734 11.8305 15.0957 11.5443 14.786L10.7142 13.8906C10.3924 13.5441 10.3337 13.0286 10.5693 12.6186C10.8049 12.2087 11.2799 11.9999 11.7413 12.1035L12.9266 12.379C13.3372 12.4733 13.7507 12.2336 13.8728 11.8304L14.2292 10.6607C14.3632 10.2051 14.7814 9.8922 15.2563 9.8922C15.7312 9.8922 16.1494 10.2051 16.2834 10.6607Z" stroke="#9B9B9B" stroke-linecap="round" stroke-linejoin="round"/>
</svg>
