<svg width="30" height="30" viewBox="0 0 30 30" fill="none" xmlns="http://www.w3.org/2000/svg">
<path fill-rule="evenodd" clip-rule="evenodd" d="M22.584 15.1042C22.584 19.1082 19.338 22.3542 15.334 22.3542C11.3299 22.3542 8.08398 19.1082 8.08398 15.1042V12.6875C8.08398 8.68344 11.3299 5.4375 15.334 5.4375C19.338 5.4375 22.584 8.68344 22.584 12.6875V15.1042Z" stroke="#9B9B9B" stroke-width="1.5" stroke-linecap="round" stroke-linejoin="round"/>
<path d="M12.3118 14.8021C12.4787 14.8021 12.6139 14.9373 12.6139 15.1042C12.6139 15.271 12.4787 15.4062 12.3118 15.4062C12.145 15.4062 12.0098 15.271 12.0098 15.1042C12.0098 14.9373 12.145 14.8021 12.3118 14.8021" stroke="#9B9B9B" stroke-width="1.5" stroke-linecap="round" stroke-linejoin="round"/>
<path d="M18.3548 14.8021C18.5217 14.8021 18.6569 14.9373 18.6569 15.1042C18.6569 15.271 18.5217 15.4062 18.3548 15.4062C18.188 15.4062 18.0527 15.271 18.0527 15.1042C18.0527 14.9373 18.188 14.8021 18.3548 14.8021" stroke="#9B9B9B" stroke-width="1.5" stroke-linecap="round" stroke-linejoin="round"/>
<path d="M17.0422 18.0211C16.0985 18.9645 14.5687 18.9645 13.625 18.0211" stroke="#9B9B9B" stroke-width="1.5" stroke-linecap="round" stroke-linejoin="round"/>
<path d="M22.584 13.2917C22.584 13.2917 17.7507 13.2917 15.334 9.66666C12.9173 13.2917 8.08398 13.2917 8.08398 13.2917" stroke="#9B9B9B" stroke-width="1.5" stroke-linecap="round" stroke-linejoin="round"/>
<path d="M1.4375 7.85416V4.22916C1.4375 2.22713 3.06047 0.604164 5.0625 0.604164H8.6875" stroke="#9B9B9B" stroke-width="1.5" stroke-linecap="round" stroke-linejoin="round"/>
<path d="M29.2285 7.85416V4.22916C29.2285 2.22713 27.6055 0.604164 25.6035 0.604164H21.9785" stroke="#9B9B9B" stroke-width="1.5" stroke-linecap="round" stroke-linejoin="round"/>
<path d="M1.4375 21.1458V24.7708C1.4375 26.7729 3.06047 28.3958 5.0625 28.3958H8.6875" stroke="#9B9B9B" stroke-width="1.5" stroke-linecap="round" stroke-linejoin="round"/>
<path d="M29.2285 21.1458V24.7708C29.2285 26.7729 27.6055 28.3958 25.6035 28.3958H21.9785" stroke="#9B9B9B" stroke-width="1.5" stroke-linecap="round" stroke-linejoin="round"/>
</svg>
