<svg width="15" height="15" viewBox="0 0 15 15" fill="none" xmlns="http://www.w3.org/2000/svg">
<path d="M4.82422 11.7864H10.0354" stroke="white" stroke-linecap="round" stroke-linejoin="round"/>
<path d="M4.82422 10.1614H10.0354" stroke="white" stroke-linecap="round" stroke-linejoin="round"/>
<path d="M3.6666 10.162H1.92953C1.29075 10.1602 0.773392 9.6762 0.771484 9.07863V5.82863C0.773392 5.23107 1.29075 4.74708 1.92953 4.7453H12.931C13.5697 4.74708 14.0871 5.23107 14.089 5.82863V9.07863C14.0871 9.6762 13.5697 10.1602 12.931 10.162H11.1939" stroke="white" stroke-linecap="round" stroke-linejoin="round"/>
<path d="M3.66602 3.66197V1.4953H9.21653C9.37008 1.49533 9.51734 1.55242 9.6259 1.65401L11.0237 2.96159C11.1323 3.06315 11.1933 3.2009 11.1933 3.34455V3.66197" stroke="white" stroke-linecap="round" stroke-linejoin="round"/>
<path fill-rule="evenodd" clip-rule="evenodd" d="M11.1933 13.412C11.1933 13.7111 10.9341 13.9537 10.6143 13.9537H4.24504C3.92525 13.9537 3.66602 13.7111 3.66602 13.412V8.53699H11.1933V13.412Z" stroke="white" stroke-linecap="round" stroke-linejoin="round"/>
<path fill-rule="evenodd" clip-rule="evenodd" d="M2.50871 6.9114C2.8285 6.9114 3.08773 6.66889 3.08773 6.36973C3.08773 6.07058 2.8285 5.82806 2.50871 5.82806C2.18892 5.82806 1.92969 6.07058 1.92969 6.36973C1.92969 6.66889 2.18892 6.9114 2.50871 6.9114Z" stroke="white" stroke-linecap="round" stroke-linejoin="round"/>
<path d="M8.87695 1.49475V3.66142H11.193" stroke="white" stroke-linecap="round" stroke-linejoin="round"/>
</svg>
