<svg width="26" height="29" viewBox="0 0 26 29" fill="none" xmlns="http://www.w3.org/2000/svg">
<path fill-rule="evenodd" clip-rule="evenodd" d="M14.0426 10.875C14.0454 7.44066 11.431 4.56985 8.01139 4.25221C4.59177 3.93457 1.49338 6.27474 0.863588 9.65084C0.233798 13.0269 2.28008 16.3268 5.58422 17.2635V18.7292L4.37589 19.9375L5.58422 21.1458V22.3542L4.37589 23.5625L5.58422 24.7708V26.5833L7.39672 28.3958L9.20922 26.5833V17.2635C12.0669 16.4534 14.0401 13.8453 14.0426 10.875Z" stroke="#9B9B9B" stroke-linecap="round" stroke-linejoin="round"/>
<path fill-rule="evenodd" clip-rule="evenodd" d="M7.39714 11.4768C8.73182 11.4768 9.8138 10.3948 9.8138 9.06008C9.8138 7.7254 8.73182 6.64342 7.39714 6.64342C6.06245 6.64342 4.98047 7.7254 4.98047 9.06008C4.98047 10.3948 6.06245 11.4768 7.39714 11.4768Z" stroke="#9B9B9B" stroke-linecap="round" stroke-linejoin="round"/>
<path d="M9.20898 18.1407C11.2355 19.304 13.7237 19.3191 15.7642 18.1806L17.0632 19.3333V21.1458H18.8757L19.4798 21.7802V23.5625H21.0712L22.3544 24.7708H24.9173V22.208L18.3271 15.6177C19.5475 13.4275 19.4314 10.7368 18.0269 8.65989C16.6223 6.58294 14.1684 5.47325 11.6812 5.79033" stroke="#9B9B9B" stroke-linecap="round" stroke-linejoin="round"/>
<path d="M7.39648 8.45833V3.02083C7.39648 1.68614 8.47846 0.604164 9.81315 0.604164C11.1478 0.604164 12.2298 1.68614 12.2298 3.02083V5.74321" stroke="#9B9B9B" stroke-linecap="round" stroke-linejoin="round"/>
</svg>
