<svg width="30" height="28" viewBox="0 0 30 28" fill="none" xmlns="http://www.w3.org/2000/svg">
<path fill-rule="evenodd" clip-rule="evenodd" d="M9.21549 13.5C11.5512 13.5 13.4447 11.6065 13.4447 9.27083C13.4447 6.93513 11.5512 5.04166 9.21549 5.04166C6.87979 5.04166 4.98633 6.93513 4.98633 9.27083C4.98633 11.6065 6.87979 13.5 9.21549 13.5Z" stroke="#9B9B9B" stroke-linecap="round" stroke-linejoin="round"/>
<path d="M9.21484 5.04166V9.27083H13.444" stroke="#9B9B9B" stroke-linecap="round" stroke-linejoin="round"/>
<path d="M11.6328 26.1875C12.7273 24.8055 13.3612 23.1151 13.4453 21.3542" stroke="#9B9B9B" stroke-linecap="round" stroke-linejoin="round"/>
<path d="M18.8828 26.1875C17.7883 24.8055 17.1544 23.1151 17.0703 21.3542" stroke="#9B9B9B" stroke-linecap="round" stroke-linejoin="round"/>
<path d="M9.81836 26.1875H20.6934" stroke="#9B9B9B" stroke-linecap="round" stroke-linejoin="round"/>
<path d="M1.36133 17.7292H29.153" stroke="#9B9B9B" stroke-linecap="round" stroke-linejoin="round"/>
<rect x="1.36133" y="0.8125" width="27.7917" height="20.5417" rx="1" stroke="#9B9B9B" stroke-linecap="round" stroke-linejoin="round"/>
<path d="M17.0703 7.45833L18.8828 5.04167L22.5078 8.0625L25.5286 4.4375" stroke="#9B9B9B" stroke-linecap="round" stroke-linejoin="round"/>
<path d="M24.3203 14.1042V12.2917" stroke="#9B9B9B" stroke-linecap="round" stroke-linejoin="round"/>
<path d="M21.9023 14.1042V11.6875" stroke="#9B9B9B" stroke-linecap="round" stroke-linejoin="round"/>
<path d="M19.4863 14.1042V10.4792" stroke="#9B9B9B" stroke-linecap="round" stroke-linejoin="round"/>
<path d="M17.0703 14.1042V12.2917" stroke="#9B9B9B" stroke-linecap="round" stroke-linejoin="round"/>
</svg>
